<svg xmlns="http://www.w3.org/2000/svg" width="900" height="470" viewBox="0 0 900 470" font-family="system-ui,-apple-system,Segoe UI,Roboto,sans-serif">
<rect width="900" height="470" fill="#FFFFFF"/>
<text x="210" y="30" font-size="16" font-weight="600" fill="#1B2430">Mr Odd Ball — time to answer, by question</text>
<text x="210" y="50" font-size="12" fill="#5C6B7F">UTILITY route, measured 2026-08-19 on the Windows desk box. Excludes speech-to-text and Piper synthesis.</text>
<line x1="210.0" y1="74" x2="210.0" y2="374" stroke="#DCE3EC" stroke-width="1"/>
<text x="210.0" y="392" font-size="11" fill="#5C6B7F" text-anchor="middle">0.0</text>
<line x1="343.7" y1="74" x2="343.7" y2="374" stroke="#DCE3EC" stroke-width="1"/>
<text x="343.7" y="392" font-size="11" fill="#5C6B7F" text-anchor="middle">0.5</text>
<line x1="477.5" y1="74" x2="477.5" y2="374" stroke="#DCE3EC" stroke-width="1"/>
<text x="477.5" y="392" font-size="11" fill="#5C6B7F" text-anchor="middle">1.0</text>
<line x1="611.2" y1="74" x2="611.2" y2="374" stroke="#DCE3EC" stroke-width="1"/>
<text x="611.2" y="392" font-size="11" fill="#5C6B7F" text-anchor="middle">1.5</text>
<line x1="745.0" y1="74" x2="745.0" y2="374" stroke="#DCE3EC" stroke-width="1"/>
<text x="745.0" y="392" font-size="11" fill="#5C6B7F" text-anchor="middle">2.0</text>
<text x="540" y="414" font-size="12" fill="#5C6B7F" text-anchor="middle">seconds</text>
<line x1="745.0" y1="66" x2="745.0" y2="374" stroke="#C6413F" stroke-width="1.5" stroke-dasharray="5 4"/>
<text x="751.0" y="62" font-size="11" fill="#C6413F">2.0 s budget (PLAN.md)</text>
<text x="200" y="93.0" font-size="12" fill="#1B2430" text-anchor="end">what time is it</text>
<rect x="210" y="81.5" width="246.6" height="15.0" fill="#4C7FE0" rx="2"/>
<rect x="456.6" y="81.5" width="16.9" height="15.0" fill="#E8A33D" rx="2"/>
<text x="480.5" y="93.0" font-size="11" fill="#5C6B7F">0.98 s</text>
<line x1="506.6" y1="77.5" x2="506.6" y2="100.5" stroke="#1B2430" stroke-width="1.5"/>
<text x="511.6" y="74.5" font-size="10" fill="#1B2430">was 1.11 s</text>
<text x="200" y="123.0" font-size="12" fill="#1B2430" text-anchor="end">what day is it today</text>
<rect x="210" y="111.5" width="204.9" height="15.0" fill="#4C7FE0" rx="2"/>
<text x="425.9" y="123.0" font-size="11" fill="#5C6B7F">0.78 s</text>
<text x="200" y="153.0" font-size="12" fill="#1B2430" text-anchor="end">date</text>
<rect x="210" y="141.5" width="179.8" height="15.0" fill="#4C7FE0" rx="2"/>
<text x="400.8" y="153.0" font-size="11" fill="#5C6B7F">0.69 s</text>
<text x="200" y="183.0" font-size="12" fill="#1B2430" text-anchor="end">mosfet</text>
<rect x="210" y="171.5" width="196.3" height="15.0" fill="#4C7FE0" rx="2"/>
<text x="417.6" y="183.0" font-size="11" fill="#5C6B7F">0.75 s</text>
<line x1="514.9" y1="167.5" x2="514.9" y2="190.5" stroke="#1B2430" stroke-width="1.5"/>
<text x="519.9" y="164.5" font-size="10" fill="#1B2430">was 1.14 s</text>
<text x="200" y="213.0" font-size="12" fill="#1B2430" text-anchor="end">i2c</text>
<rect x="210" y="201.5" width="196.6" height="15.0" fill="#4C7FE0" rx="2"/>
<text x="413.6" y="213.0" font-size="11" fill="#5C6B7F">0.73 s</text>
<line x1="799.3" y1="197.5" x2="799.3" y2="220.5" stroke="#1B2430" stroke-width="1.5"/>
<text x="804.3" y="194.5" font-size="10" fill="#1B2430">was 2.20 s</text>
<text x="200" y="243.0" font-size="12" fill="#1B2430" text-anchor="end">convert 3.3 volts to mill…</text>
<rect x="210" y="231.5" width="217.2" height="15.0" fill="#4C7FE0" rx="2"/>
<text x="434.2" y="243.0" font-size="11" fill="#5C6B7F">0.81 s</text>
<text x="200" y="273.0" font-size="12" fill="#1B2430" text-anchor="end">how many ohms in a kilohm</text>
<rect x="210" y="261.5" width="183.8" height="15.0" fill="#4C7FE0" rx="2"/>
<text x="405.0" y="273.0" font-size="11" fill="#5C6B7F">0.70 s</text>
<line x1="448.3" y1="257.5" x2="448.3" y2="280.5" stroke="#1B2430" stroke-width="1.5"/>
<text x="453.3" y="254.5" font-size="10" fill="#1B2430">was 0.89 s</text>
<text x="200" y="303.0" font-size="12" fill="#1B2430" text-anchor="end">speed of light</text>
<rect x="210" y="291.5" width="175.5" height="15.0" fill="#4C7FE0" rx="2"/>
<text x="396.8" y="303.0" font-size="11" fill="#5C6B7F">0.67 s</text>
<text x="200" y="333.0" font-size="12" fill="#1B2430" text-anchor="end">planck's constant</text>
<rect x="210" y="321.5" width="229.8" height="15.0" fill="#4C7FE0" rx="2"/>
<text x="451.1" y="333.0" font-size="11" fill="#5C6B7F">0.88 s</text>
<line x1="373.2" y1="317.5" x2="373.2" y2="340.5" stroke="#1B2430" stroke-width="1.5"/>
<text x="378.2" y="314.5" font-size="10" fill="#1B2430">was 0.61 s</text>
<text x="200" y="363.0" font-size="12" fill="#1B2430" text-anchor="end">capacitance</text>
<rect x="210" y="351.5" width="184.0" height="15.0" fill="#4C7FE0" rx="2"/>
<text x="401.0" y="363.0" font-size="11" fill="#5C6B7F">0.69 s</text>
<rect x="210" y="427" width="12" height="12" fill="#4C7FE0" rx="2"/>
<text x="228" y="437" font-size="11" fill="#5C6B7F">router call (every turn)</text>
<rect x="425" y="427" width="12" height="12" fill="#E8A33D" rx="2"/>
<text x="443" y="437" font-size="11" fill="#5C6B7F">agent call (only when the tables miss)</text>
<text x="210" y="458" font-size="11" fill="#5C6B7F">median 0.74 s · 0/10 over budget · router gemini-3.5-flash-lite, agents gemini-3.5-flash</text>
</svg>